<svg id="visual" viewBox="0 0 900 100" width="900" height="100" xmlns="http://www.w3.org/2000/svg" xmlns:xlink="http://www.w3.org/1999/xlink" version="1.1"><path d="M0 68L15 65.5C30 63 60 58 90 51.5C120 45 150 37 180 34.3C210 31.7 240 34.3 270 39.7C300 45 330 53 360 54.2C390 55.3 420 49.7 450 44.8C480 40 510 36 540 36.2C570 36.3 600 40.7 630 41C660 41.3 690 37.7 720 40C750 42.3 780 50.7 810 53.8C840 57 870 55 885 54L900 53" fill="none" stroke-linecap="round" stroke-linejoin="miter" stroke="#525252" stroke-width="1"></path></svg>